<svg width="60" height="60" viewBox="0 0 60 60" fill="none" xmlns="http://www.w3.org/2000/svg">
<path d="M31.359 43H11.13L8 56H12.109L14.279 47H28.21L30.38 56H34.49L31.359 43Z" fill="black"/>
<path d="M32.73 37H27V35.58C27 34.161 25.839 33 24.42 33H16.17C15.49 30.72 15 28.02 15 25C15 15.962 17.648 14.383 17.969 11.147C17.984 10.983 18 10.819 18 10.656C18 8.234 16.084 6 13.592 6C12.082 6 10.799 6.628 9.87 7.67C5.615 12.446 3 18.57 3 25C3 30.48 4.424 34.778 5.779 37.641C6.75 39.688 8.799 41 11.064 41H32.73C33.431 41 34 40.432 34 39.73V38.27C34 37.568 33.432 37 32.73 37ZM12.999 23.045C12.975 23.581 12.532 24 12.001 24C11.439 24 11 23.545 11 23C11 22.985 11 22.97 11.001 22.955C11.212 18.247 12.332 15.467 13.072 13.627C13.229 13.236 13.606 13.001 14 13C14.547 12.998 15 13.443 15 14C15 14.124 14.977 14.251 14.928 14.373C14.196 16.189 13.195 18.677 12.999 23.045Z" fill="black"/>
<path d="M57 26.938C57 27.524 56.524 28 55.938 28H27.063C26.476 28 26 27.524 26 26.938V25.719C26 24.77 26.77 24 27.719 24H55.282C56.23 24 57 24.77 57 25.719V26.938Z" fill="black"/>
<path d="M56 43C56 48.137 54.582 50.893 51.525 55.273C51.204 55.732 50.667 56 50.107 56H44.281C43.573 56 43 55.427 43 54.719V53.875C43 52.84 43.84 52 44.875 52H48.95C49.93 50.43 52 48.48 52 43C52 38 50.01 35.27 49.07 34H33.285C32.39 34 31.612 33.392 31.394 32.525C31.302 32.155 31.117 31.416 31.025 31.046C31.008 30.974 31 30.901 31 30.831C31 30.393 31.369 30 31.842 30H50.8C53.29 32.11 56 37 56 43Z" fill="black"/>
<path d="M43.094 13H36.906C36.406 13 36 13.405 36 13.906V14.24C35.429 14.094 34.734 14 33.854 14C32.952 14 32 14.893 32 16C32 17.301 33.284 19.479 36 19.917C36 21.125 37.016 22 38.188 22H41.813C43.021 22 44 21.021 44 19.813V13.907C44 13.405 43.594 13 43.094 13ZM34 16.553C34 16.082 34.533 16 34.761 16C35.289 16 35.824 16.271 36 16.506V18C34.682 18 34 17.228 34 16.553Z" fill="black"/>
<path d="M39 4C39 4 37 4.562 37 5.999C37 6.858 37.462 7.602 38.094 8.234C39.008 9.148 39 11 39 11C39 11 41 9.999 41 8.5C41 7.437 40.125 6.957 39.5 6.234C39 5.656 39 4 39 4Z" fill="black"/>
</svg>
