<svg width="60" height="60" viewBox="0 0 60 60" fill="none" xmlns="http://www.w3.org/2000/svg">
<path d="M54 4H32C30.344 4 29.01 5.343 29.01 7L29 27C29 28.657 30.344 30 32 30H36V34.998C36 35.598 36.488 35.996 37 36C37.248 36.002 37.501 35.911 37.707 35.705L43.061 30H54C55.656 30 56.99 28.657 56.99 27L57 7C57 5.343 55.656 4 54 4ZM43 25C42.396 25 34 19.5 34 14C34 11.238 36.238 9 39 9C40.639 9 42.088 9.791 43 11.009C43.912 9.791 45.361 9 47 9C49.762 9 52 11.238 52 14C52 19.5 43.604 25 43 25Z" fill="black"/>
<path d="M50 46V32H46V46H11V18H27V14H10C8.344 14 7.01 15.343 7.01 17L7 46H4V51C4 54.313 6.687 57 10 57H47C50.313 57 53 54.313 53 51V46H50ZM33.5 53H23.5C22.672 53 22 52.328 22 51.5C22 50.672 22.672 50 23.5 50H33.5C34.328 50 35 50.672 35 51.5C35 52.328 34.328 53 33.5 53Z" fill="black"/>
</svg>
