<svg width="15" height="14" viewBox="0 0 15 14" fill="none" xmlns="http://www.w3.org/2000/svg">
<g clip-path="url(#clip0_164_4489)">
<rect width="14.6158" height="14" fill="#DF8D9F"/>
<path d="M12.7888 5.8335C12.7888 9.91683 7.30788 13.4168 7.30788 13.4168C7.30788 13.4168 1.82697 9.91683 1.82697 5.8335C1.82697 4.44111 2.40442 3.10575 3.43229 2.12119C4.46016 1.13662 5.85425 0.583496 7.30788 0.583496C8.76151 0.583496 10.1556 1.13662 11.1835 2.12119C12.2113 3.10575 12.7888 4.44111 12.7888 5.8335Z" stroke="white" stroke-width="2" stroke-linecap="round" stroke-linejoin="round"/>
<path d="M7.3079 7.5835C8.31691 7.5835 9.13487 6.79999 9.13487 5.8335C9.13487 4.867 8.31691 4.0835 7.3079 4.0835C6.29889 4.0835 5.48093 4.867 5.48093 5.8335C5.48093 6.79999 6.29889 7.5835 7.3079 7.5835Z" stroke="white" stroke-width="2" stroke-linecap="round" stroke-linejoin="round"/>
</g>
<defs>
<clipPath id="clip0_164_4489">
<rect width="14.6158" height="14" fill="white"/>
</clipPath>
</defs>
</svg>
