<svg width="60" height="60" viewBox="0 0 60 60" fill="none" xmlns="http://www.w3.org/2000/svg">
<path d="M30.615 5.076L4.61 15.078C4.252 15.23 4 15.586 4 16C4 16.416 4.254 16.773 4.615 16.924L30.615 26.924C30.734 26.973 30.863 27 31 27C31.139 27 31.27 26.972 31.389 26.922L57.389 16.922C57.748 16.77 58 16.414 58 16C58 15.584 57.746 15.228 57.385 15.076L31.385 5.076C31.266 5.027 31.137 5 31 5C30.861 5 30.735 5.025 30.615 5.076Z" fill="black"/>
<path d="M12 24.334V47.149C12 48.313 12.667 49.367 13.72 49.863C16.758 51.294 24.379 55 31 55C37.621 55 45.242 51.294 48.28 49.863C49.333 49.367 50 48.313 50 47.149V24.334L32.928 30.614C32.309 30.871 31.662 31 31 31C30.346 31 29.705 30.874 29.099 30.625L12 24.334Z" fill="black"/>
<path d="M7 41.3501V22.1271L4 20.9731V41.3501C2.82 41.9131 2 43.1071 2 44.5001C2 46.4341 3.566 48.0001 5.5 48.0001C7.434 48.0001 9 46.4341 9 44.5001C9 43.1061 8.18 41.9131 7 41.3501Z" fill="black"/>
</svg>
