<svg width="60" height="60" viewBox="0 0 60 60" fill="none" xmlns="http://www.w3.org/2000/svg">
<path d="M34.215 6.37701C30.283 10.844 28 16.063 28 20.825C28 24.381 29.265 27.41 31.656 29.584C32.069 29.959 32.515 30.291 32.976 30.603C38.289 25.247 42.676 18.977 45.899 12.059C42.662 9.18801 38.657 7.16401 34.215 6.37701Z" fill="black"/>
<path d="M35.77 32.018C37.508 32.652 39.436 32.997 41.468 33C45.449 33.008 49.834 31.801 53.989 29.543C53.88 23.727 51.702 18.417 48.16 14.319C44.979 20.871 40.773 26.831 35.77 32.018Z" fill="black"/>
<path d="M29.639 31.805C26.604 29.046 25 25.249 25 20.825C25 15.928 27.041 10.661 30.623 6.015C30.415 6.011 30.209 6 30 6C24.337 6 19.137 7.966 15.031 11.246C15.016 11.663 15 12.08 15 12.5C15 22.144 19.226 30.814 25.918 36.771C27.601 35.5 29.219 34.149 30.77 32.724C30.379 32.437 30 32.132 29.639 31.805Z" fill="black"/>
<path d="M33.4601 34.301C31.8161 35.852 30.0981 37.322 28.3081 38.707C33.6891 42.658 40.3251 45 47.5001 45C47.9181 45 48.3321 44.984 48.7461 44.969C51.4391 41.598 53.2481 37.49 53.8091 32.99C49.7131 34.924 45.4491 36 41.4851 36C38.5901 36 35.8541 35.393 33.4601 34.301Z" fill="black"/>
<path d="M12.04 14.088C8.285 18.323 6 23.894 6 30C6 31.369 6.121 32.71 6.342 34.017C10.61 34.17 14.485 35.51 17.362 38.125C18.284 38.963 19.055 39.906 19.709 40.925C20.978 40.176 22.22 39.391 23.432 38.561C16.773 32.407 12.467 23.745 12.04 14.088Z" fill="black"/>
<path d="M21.0439 43.615C21.6639 45.3 21.9999 47.135 21.9999 49.104C21.9999 50.225 21.8859 51.367 21.6779 52.515C24.2709 53.475 27.0739 54 29.9999 54C36.1069 54 41.6789 51.717 45.9129 47.96C38.3539 47.625 31.4069 44.913 25.7929 40.56C24.2539 41.641 22.6719 42.66 21.0439 43.615Z" fill="black"/>
<path d="M15.344 40.346C13.162 38.362 10.27 37.273 7.04297 37.011C7.95297 39.995 9.43897 42.723 11.356 45.088C13.316 44.28 15.228 43.381 17.088 42.395C16.596 41.65 16.02 40.96 15.344 40.346Z" fill="black"/>
<path d="M13.5361 47.429C15.1231 48.928 16.9011 50.228 18.8511 51.252C18.9491 50.529 19.0001 49.812 19.0001 49.104C19.0001 47.675 18.7861 46.336 18.3871 45.098C16.8051 45.936 15.1881 46.716 13.5361 47.429Z" fill="black"/>
<path d="M46.61 52.292C49.756 49.939 52.303 47.074 54.186 43.778C54.441 43.314 54.934 43 55.5 43C56.328 43 57 43.672 57 44.5C57 44.779 56.925 45.041 56.792 45.266C54.674 48.975 51.811 52.148 48.408 54.695C48.156 54.886 47.842 55 47.5 55C46.672 55 46 54.328 46 53.5C46 53.005 46.24 52.565 46.61 52.292Z" fill="black"/>
<path d="M13.389 7.708C10.245 10.061 7.697 12.926 5.814 16.222C5.559 16.686 5.066 17 4.5 17C3.672 17 3 16.328 3 15.5C3 15.221 3.074 14.959 3.207 14.734C5.326 11.025 8.188 7.852 11.592 5.305C11.844 5.114 12.158 5 12.5 5C13.328 5 14 5.672 14 6.5C14 6.995 13.76 7.435 13.389 7.708Z" fill="black"/>
</svg>
