<?xml version="1.0" encoding="UTF-8" standalone="no"?>
<!-- Created with Inkscape (http://www.inkscape.org/) -->

<svg
   width="132.29167mm"
   height="132.29167mm"
   viewBox="0 0 132.29167 132.29167"
   version="1.1"
   id="svg119889"
   inkscape:version="1.1.1 (3bf5ae0d25, 2021-09-20, custom)"
   sodipodi:docname="logo-1(500x500).svg"
   xmlns:inkscape="http://www.inkscape.org/namespaces/inkscape"
   xmlns:sodipodi="http://sodipodi.sourceforge.net/DTD/sodipodi-0.dtd"
   xmlns="http://www.w3.org/2000/svg"
   xmlns:svg="http://www.w3.org/2000/svg">
  <sodipodi:namedview
     id="namedview119891"
     pagecolor="#ffffff"
     bordercolor="#666666"
     borderopacity="1.0"
     inkscape:pageshadow="2"
     inkscape:pageopacity="0.0"
     inkscape:pagecheckerboard="0"
     inkscape:document-units="mm"
     showgrid="false"
     fit-margin-top="0"
     fit-margin-left="0"
     fit-margin-right="0"
     fit-margin-bottom="0"
     inkscape:zoom="0.57370932"
     inkscape:cx="164.71756"
     inkscape:cy="273.65775"
     inkscape:window-width="1890"
     inkscape:window-height="995"
     inkscape:window-x="15"
     inkscape:window-y="53"
     inkscape:window-maximized="1"
     inkscape:current-layer="layer1" />
  <defs
     id="defs119886" />
  <g
     inkscape:label="Layer 1"
     inkscape:groupmode="layer"
     id="layer1"
     transform="translate(-53.299812,-75.89765)">
    <g
       id="g84283"
       transform="translate(-334.68795,233.45072)"
       inkscape:export-filename="/home/ahmadnzr/Pictures/desain/lepas-aja/logo-1(500x500).png"
       inkscape:export-xdpi="96"
       inkscape:export-ydpi="96">
      <rect
         style="fill:#e92024;fill-opacity:1;stroke:none;stroke-width:0.824045;paint-order:stroke fill markers;stop-color:#000000"
         id="rect846"
         width="132.29167"
         height="132.29167"
         x="387.98776"
         y="-157.55307"
         rx="11.60262"
         ry="11.60262" />
      <g
         id="g84266"
         transform="matrix(0.83361837,0,0,0.83361837,73.261869,-14.912092)">
        <path
           d="m 414.12567,-48.225126 c 6.08249,-1.4715 7.25951,-1.736851 11.94534,-2.693033 21.47759,-4.382673 47.83857,-7.561881 67.20543,-8.105153 4.52627,-0.126993 8.06528,-0.313304 7.95954,-0.419093 -0.0369,-0.03686 -2.63746,-0.277223 -5.77912,-0.534157 -4.91138,-0.401662 -7.13902,-0.466451 -15.89158,-0.462242 -10.11288,0.0044 -13.27717,0.135557 -24.61776,1.016355 -3.95895,0.307499 -18.70226,1.879215 -19.32027,2.059648 -0.17139,0.05007 -1.85412,0.285568 -3.7394,0.523417 -9.98081,1.259166 -29.89954,5.021573 -30.81336,5.820254 -0.22611,0.197631 5.51596,3.329961 6.71497,3.663047 1.1676,0.324378 1.71154,0.249778 6.33621,-0.869043 z"
           style="fill:#ffffff;stroke-width:0.0549656"
           id="path82553" />
        <g
           id="g84251"
           transform="translate(-1.3921503,0.43430056)">
          <path
             d="m 407.32391,-107.41541 h 12.7448 a 0.84361617,0.9718563 0 0 0 0.82662,-0.77776 l 0.88971,-5.02861 a 0.56274062,0.64828418 0 0 0 -0.55141,-0.77776 h -10.78075 a 0.56546707,0.65142508 0 0 1 -0.5546,-0.7785 l 3.66275,-21.21495 a 0.56546707,0.65142508 0 0 0 -0.5546,-0.7785 h -5.82987 a 0.84045924,0.96821948 0 0 0 -0.82414,0.77834 l -3.79783,21.87574 a 4.863776,5.6031303 0 0 0 4.76932,6.702 z"
             style="-inkscape-font-specification:'Montserrat Ultra-Bold Italic';fill:#ffffff;stroke-width:0.976812"
             id="path82720" />
          <path
             d="m 444.46881,-119.74394 c -0.34493,-4.42608 -3.60097,-7.43523 -8.74387,-7.71429 -0.43767,-0.0237 -1.14903,-0.0236 -1.58674,-4e-4 -6.27006,0.33197 -10.57619,4.59977 -10.93578,10.40195 -0.0271,0.43747 -0.028,1.14926 0.006,1.58623 0.36449,4.7274 4.01156,7.77269 9.49662,8.03902 0.43783,0.0213 1.14905,0.021 1.58694,0.001 2.40647,-0.10857 4.76255,-0.72293 6.82964,-2.04192 0.36947,-0.23575 0.45798,-0.7448 0.21552,-1.11002 l -1.95287,-2.94167 c -0.24246,-0.36522 -0.7141,-0.43392 -1.08576,-0.20194 -0.965,0.6023 -2.08855,0.96585 -3.25499,1.07907 -0.43615,0.0423 -1.14872,0.0435 -1.58537,0.006 -1.8699,-0.16007 -3.02201,-0.91996 -3.45634,-2.3445 -0.12767,-0.41876 0.197,-0.7767 0.63538,-0.7767 h 12.67441 c 0.43838,0 0.87323,-0.34655 0.95202,-0.77776 0.0943,-0.51609 0.16992,-1.05725 0.20832,-1.61887 0.0299,-0.43698 0.0312,-1.14863 -0.003,-1.58557 z M 435.4,-122.5845 c 1.47396,0.223 2.50141,1.08791 2.76328,2.4497 0.0826,0.42972 -0.29034,0.78966 -0.72872,0.78966 h -6.40349 c -0.43838,0 -0.68702,-0.34093 -0.49651,-0.73541 0.63883,-1.32279 1.72339,-2.26702 3.28362,-2.50351 0.43301,-0.0656 1.14878,-0.066 1.58182,-4.4e-4 z"
             style="-inkscape-font-specification:'Montserrat Ultra-Bold Italic';fill:#ffffff;stroke-width:0.895851"
             id="path82722" />
          <path
             id="path82724"
             style="font-style:italic;font-weight:800;font-size:22.576px;line-height:1.25;font-family:Montserrat;-inkscape-font-specification:'Montserrat Ultra-Bold Italic';fill:#ffffff;stroke-width:0.895852"
             d="m 460.94705,-127.465 c -0.45581,-0.002 -0.9121,0.0211 -1.25662,0.0673 v 8.4e-4 c -1.2659,0.17106 -2.39173,0.60617 -3.38594,1.28203 -0.57492,0.39081 -0.8644,0.23396 -0.71771,-0.44621 -0.10138,-0.51338 -0.65046,-0.80246 -1.13111,-0.5955 h -3.93058 c -0.73251,-7e-5 -1.36322,0.51698 -1.50679,1.23528 l -4.77379,26.782191 c -0.005,0.03973 -0.009,0.07969 -0.009,0.119756 1.72575,-1.908967 5.0894,-1.536247 6.73253,0.164051 0.0378,-0.0916 0.0666,-0.186653 0.0862,-0.283807 l 1.36734,-9.690031 c 0.13698,-0.68221 0.54817,-0.7461 1.054,-0.27068 0.99335,0.93363 2.32327,1.44843 3.88548,1.62079 0.69099,0.0762 1.82369,0.0748 2.51403,-0.009 4.84522,-0.587 8.69523,-4.54087 9.21786,-9.91833 0.0673,-0.69228 0.0689,-1.82468 -0.01,-2.51568 -0.49013,-4.31408 -3.49453,-6.94068 -6.88099,-7.46172 -0.34353,-0.0528 -0.79917,-0.0793 -1.25496,-0.0812 z m -2.36476,5.45623 c 0.45562,-0.001 0.91127,0.0438 1.24513,0.1378 1.17671,0.33109 1.9688,1.15462 2.28765,2.31881 0.18325,0.6691 0.17224,1.81606 0.0541,2.50092 -0.35365,2.05021 -1.58175,3.51186 -3.27439,3.98882 -0.66763,0.18813 -1.82149,0.19379 -2.49025,0.009 -1.17519,-0.32406 -1.96658,-1.1316 -2.286,-2.28682 -0.18487,-0.66862 -0.17329,-1.81481 -0.0574,-2.5001 0.35085,-2.0756 1.57999,-3.54552 3.27604,-4.02409 0.33378,-0.0942 0.7895,-0.14281 1.24512,-0.14437 z"
             sodipodi:nodetypes="sccscccccccccsccscssscscscscsssc" />
          <path
             d="m 487.73855,-126.37862 -0.15451,0.77253 c -0.086,0.42987 -0.34596,0.47538 -0.63705,0.14813 -1.10894,-1.24672 -2.72823,-1.86745 -4.67388,-1.996 -0.43734,-0.0289 -1.14917,-0.0287 -1.58619,0.004 -5.20054,0.39374 -9.3659,4.63878 -9.71805,10.39289 -0.0268,0.43748 -0.0273,1.14913 0.003,1.58638 0.3326,4.82247 3.69287,7.6636 7.38647,8.01978 0.43619,0.0421 1.14865,0.042 1.58542,0.006 1.62356,-0.13386 3.0276,-0.68415 4.2273,-1.60544 0.34757,-0.26691 0.53084,-0.16514 0.43841,0.26339 l -0.0595,0.2757 a 0.64079548,0.64079548 51.086014 0 0 0.62639,0.77591 h 4.86262 a 0.96751885,0.96751885 140.63463 0 0 0.94886,-0.77845 l 3.55985,-17.86512 a 0.65119047,0.65119047 50.634634 0 0 -0.63864,-0.77845 h -5.22095 a 0.96822261,0.96822261 140.65506 0 0 -0.94942,0.77834 z m -7.01343,13.42359 c -1.58758,-0.2525 -2.59151,-1.28788 -2.8398,-2.84029 -0.0692,-0.43242 -0.0654,-1.1471 -0.0208,-1.58302 0.25643,-2.50725 1.7346,-4.2377 3.79285,-4.5886 0.43163,-0.0736 1.14837,-0.0746 1.58059,-0.004 1.58816,0.25825 2.59227,1.31561 2.84018,2.8747 0.0688,0.43249 0.0652,1.14714 0.0204,1.58303 -0.25489,2.48172 -1.71367,4.20739 -3.79253,4.55428 -0.43191,0.0721 -1.14841,0.073 -1.58089,0.004 z"
             style="-inkscape-font-specification:'Montserrat Ultra-Bold Italic';fill:#ffffff;stroke-width:0.895851"
             id="path82726" />
          <path
             d="m 503.5947,-107.42763 c 5.05795,-0.19603 9.0155,-2.28528 9.48082,-6.21628 0.0515,-0.43509 0.0537,-1.14963 -0.008,-1.58321 -0.69447,-4.84828 -7.85734,-4.04906 -9.59913,-5.28804 -0.34182,-0.24315 -0.37701,-1.06229 -0.0822,-1.37174 0.34275,-0.35974 0.99492,-0.63175 2.02673,-0.72236 0.43656,-0.0383 1.14857,-0.0351 1.58614,-0.01 1.3394,0.0782 2.85438,0.36839 4.27925,1.06645 0.39354,0.1928 0.85661,0.0623 1.05384,-0.32917 l 1.68665,-3.34816 c 0.19723,-0.3915 0.0409,-0.87232 -0.36361,-1.041 -1.6346,-0.68161 -3.71686,-1.10801 -5.86759,-1.19302 -0.43798,-0.0173 -1.14903,-0.0174 -1.58706,-8e-4 -5.14675,0.19561 -9.0585,2.31411 -9.51735,6.25234 -0.0507,0.4352 -0.0528,1.14959 0.008,1.58337 0.68663,4.89534 7.82638,4.14988 9.61276,5.30552 0.3508,0.22694 0.41373,1.05147 0.11609,1.35744 -0.33976,0.34926 -0.99459,0.57925 -2.03693,0.65374 -0.43724,0.0312 -1.14903,0.0284 -1.58652,0.002 -1.80494,-0.11065 -3.73868,-0.58937 -5.25551,-1.37195 -0.38939,-0.2009 -0.85169,-0.0796 -1.05357,0.30957 l -1.74148,3.35677 c -0.20188,0.38913 -0.0657,0.89756 0.32808,1.08963 1.64655,0.8031 4.20813,1.40067 6.93383,1.49969 0.43805,0.0159 1.14908,0.0162 1.5871,-7.5e-4 z"
             style="-inkscape-font-specification:'Montserrat Ultra-Bold Italic';fill:#ffffff;stroke-width:0.895851"
             id="path82728" />
          <path
             d="m 427.32247,-70.113942 h 5.99683 a 0.48174788,0.57008466 0 0 0 0.4683,-0.703875 l -5.74413,-28.154868 a 1.6594329,1.9637185 0 0 0 -1.61309,-1.502865 h -4.53434 a 2.3901496,2.8284248 0 0 0 -2.01184,1.301348 l -15.42136,28.450768 a 0.33446789,0.39579834 0 0 0 0.28153,0.609492 h 6.43663 a 1.0766414,1.2740622 0 0 0 0.92501,-0.622118 l 2.34265,-4.654596 a 1.0766414,1.2740622 0 0 1 0.92501,-0.622118 h 9.69875 a 0.75070593,0.88836082 0 0 1 0.73528,0.709225 l 0.77948,4.480382 a 0.75070593,0.88836082 0 0 0 0.73529,0.709225 z m -9.06085,-12.854943 4.28936,-8.598725 a 0.23642706,0.27978003 0 0 1 0.43511,0.0855 l 1.47458,8.427727 a 0.49818187,0.58953211 0 0 1 -0.48783,0.70906 h -5.41038 a 0.34934848,0.41340755 0 0 1 -0.30084,-0.623562 z"
             style="-inkscape-font-specification:'Montserrat Ultra-Bold Italic';fill:#ffffff;stroke-width:0.9968"
             id="path82749" />
          <path
             style="-inkscape-font-specification:'Montserrat Ultra-Bold Italic';fill:#ffffff;stroke-width:0.895851"
             d="m 437.43131,-63.180031 c 4.30582,-0.262487 7.02705,-2.706245 8.1379,-7.228086 0.10457,-0.425656 0.24087,-1.123439 0.32748,-1.553174 l 3.44893,-17.113289 a 0.64974034,0.64974034 50.697255 0 0 -0.63693,-0.778105 h -5.22096 a 0.96930015,0.96930015 140.6863 0 0 -0.95027,0.778165 l -3.48535,17.328179 c -0.0864,0.429769 -0.21757,1.130341 -0.35713,1.5456 -0.308,0.916409 -0.78683,1.447882 -1.45377,1.663485 -0.41541,0.134292 -1.14184,0.119349 -1.57044,0.03095 -0.18385,-0.03792 -0.36488,-0.08835 -0.53941,-0.150077 -0.41245,-0.145864 -0.88405,-0.02832 -1.09257,0.357287 l -1.86078,3.44117 c -0.20852,0.38561 -0.0585,0.856706 0.35179,1.010682 0.97987,0.367747 2.10721,0.597876 3.31494,0.668035 0.43757,0.02542 1.14908,0.02585 1.58657,-8.22e-4 z"
             id="path82799" />
          <path
             style="font-style:italic;font-weight:800;font-size:22.576px;line-height:1.25;font-family:Montserrat;-inkscape-font-specification:'Montserrat Ultra-Bold Italic';fill:#ffffff;stroke-width:0.816543"
             d="m 446.71006,-92.04193 c 2.19187,0.221153 3.80874,-1.272443 4.04256,-3.58989 0.18705,-1.853952 -0.9463,-3.372928 -2.93082,-3.573162 -2.19188,-0.221169 -3.78271,1.311093 -4.00214,3.48591 -0.18705,1.853952 0.90589,3.476909 2.8904,3.677142 z"
             id="path82751" />
          <path
             d="m 467.40712,-89.074348 -0.15451,0.772535 c -0.086,0.429864 -0.34595,0.475376 -0.63703,0.148124 -1.10895,-1.246738 -2.72824,-1.867472 -4.67389,-1.996024 -0.43734,-0.02889 -1.14917,-0.02869 -1.58619,0.0044 -5.20054,0.393735 -9.3659,4.638792 -9.71806,10.392905 -0.0268,0.437486 -0.0273,1.149138 0.003,1.586389 0.3326,4.822454 3.69286,7.663573 7.38646,8.01975 0.43619,0.04206 1.14865,0.04203 1.58542,0.006 1.62356,-0.133857 3.02761,-0.684131 4.22729,-1.605424 0.34758,-0.266917 0.53084,-0.165144 0.43842,0.263378 l -0.0595,0.275724 a 0.64080381,0.64080381 51.08565 0 0 0.6264,0.775908 h 4.86261 a 0.96751886,0.96751886 140.63463 0 0 0.94886,-0.778446 l 3.55985,-17.865127 a 0.65119047,0.65119047 50.634634 0 0 -0.63864,-0.778446 h -5.22096 a 0.96821454,0.96821454 140.65483 0 0 -0.94941,0.778337 z m -7.01342,13.42357 c -1.58759,-0.252502 -2.59152,-1.287874 -2.83981,-2.840284 -0.0692,-0.432413 -0.0654,-1.1471 -0.0208,-1.583012 0.25643,-2.507248 1.73459,-4.237713 3.79285,-4.588614 0.43163,-0.07359 1.14837,-0.07464 1.58059,-0.0044 1.58815,0.258248 2.59227,1.315626 2.84018,2.874726 0.0688,0.432483 0.0652,1.14714 0.0204,1.583031 -0.25489,2.481702 -1.71367,4.207361 -3.79252,4.554252 -0.43191,0.07207 -1.14841,0.07304 -1.58089,0.0043 z"
             style="-inkscape-font-specification:'Montserrat Ultra-Bold Italic';fill:#ffffff;stroke-width:0.895851"
             id="path82753" />
          <path
             style="font-style:italic;font-weight:800;font-size:22.576px;line-height:1.25;font-family:Montserrat;-inkscape-font-specification:'Montserrat Ultra-Bold Italic';fill:#ffffff;stroke-width:0.895851"
             d="m 478.56381,-70.108167 c 2.40087,0 4.26424,-1.791699 4.26424,-4.049243 0,-1.935029 -1.57669,-3.404229 -3.87006,-3.404229 -2.40089,0 -4.26425,1.64837 -4.26425,3.977578 0,1.93503 1.5767,3.475894 3.87007,3.475894 z"
             id="path82821" />
          <path
             style="-inkscape-font-specification:'Montserrat Ultra-Bold Italic';fill:#ffffff;stroke-width:0.895851"
             d="m 477.99586,-79.568333 h 3.82344 a 1.0519736,1.0519736 142.9642 0 0 1.01158,-0.763274 l 4.11526,-14.419578 a 0.59891148,0.59891148 52.9642 0 0 -0.57592,-0.763274 h -6.54682 a 0.88991529,0.88991529 138.26899 0 0 -0.88413,0.788588 l -1.64678,14.36895 a 0.70797644,0.70797644 48.26899 0 0 0.70337,0.788588 z"
             id="path82755" />
        </g>
      </g>
    </g>
  </g>
</svg>
