<?xml version="1.0" encoding="UTF-8" standalone="no"?>
<!-- Created with Inkscape (http://www.inkscape.org/) -->

<svg
   width="393.27448mm"
   height="132.29025mm"
   viewBox="0 0 393.27448 132.29025"
   version="1.1"
   id="svg120444"
   inkscape:version="1.1.1 (3bf5ae0d25, 2021-09-20, custom)"
   sodipodi:docname="logo-3.svg"
   xmlns:inkscape="http://www.inkscape.org/namespaces/inkscape"
   xmlns:sodipodi="http://sodipodi.sourceforge.net/DTD/sodipodi-0.dtd"
   xmlns="http://www.w3.org/2000/svg"
   xmlns:svg="http://www.w3.org/2000/svg">
  <sodipodi:namedview
     id="namedview120446"
     pagecolor="#ffffff"
     bordercolor="#666666"
     borderopacity="1.0"
     inkscape:pageshadow="2"
     inkscape:pageopacity="0.0"
     inkscape:pagecheckerboard="0"
     inkscape:document-units="mm"
     showgrid="false"
     fit-margin-top="0"
     fit-margin-left="0"
     fit-margin-right="0"
     fit-margin-bottom="0"
     inkscape:zoom="0.57370932"
     inkscape:cx="473.23617"
     inkscape:cy="332.92121"
     inkscape:window-width="1890"
     inkscape:window-height="995"
     inkscape:window-x="15"
     inkscape:window-y="53"
     inkscape:window-maximized="1"
     inkscape:current-layer="layer1" />
  <defs
     id="defs120441">
    <inkscape:path-effect
       effect="fillet_chamfer"
       id="path-effect98568"
       is_visible="true"
       lpeversion="1"
       satellites_param="F,0,0,1,0,1.0583333,0,1 @ F,0,0,1,0,1.0583333,0,1 @ F,0,0,1,0,1.0583333,0,1 @ F,0,0,1,0,1.0583333,0,1 | F,0,0,1,0,1.0583333,0,1 @ F,0,0,1,0,1.0583333,0,1 @ F,0,0,1,0,1.0583333,0,1 @ F,0,0,1,0,1.0583333,0,1 @ F,0,0,1,0,1.0583333,0,1 @ F,0,0,1,0,1.0583333,0,1 | F,0,0,1,0,1.0583333,0,1 @ F,0,0,1,0,1.0583333,0,1 @ F,0,0,1,0,1.0583333,0,1 @ F,0,0,1,0,1.0583333,0,1 @ F,0,0,1,0,1.0583333,0,1 @ F,0,0,1,0,1.0583333,0,1 @ F,0,0,1,0,1.0583333,0,1 @ F,0,0,1,0,1.0583333,0,1 | F,0,0,1,0,1.0583333,0,1 @ F,0,0,1,0,1.0583333,0,1 @ F,0,0,1,0,1.0583333,0,1 @ F,0,0,1,0,1.0583333,0,1 @ F,0,0,1,0,1.0583333,0,1 @ F,0,0,1,0,1.0583333,0,1 @ F,0,0,1,0,1.0583333,0,1 @ F,0,0,1,0,1.0583333,0,1 @ F,0,0,1,0,1.0583333,0,1 | F,0,0,1,0,1.0583333,0,1 @ F,0,0,1,0,1.0583333,0,1 @ F,0,0,1,0,1.0583333,0,1 @ F,0,0,1,0,1.0583333,0,1 @ F,0,0,1,0,1.0583333,0,1 @ F,0,0,1,0,1.0583333,0,1 @ F,0,0,1,0,1.0583333,0,1 @ F,0,0,1,0,1.0583333,0,1 @ F,0,0,1,0,1.0583333,0,1 | F,0,0,1,0,1.0583333,0,1 @ F,0,0,1,0,1.0583333,0,1 @ F,0,0,1,0,1.0583333,0,1 @ F,0,0,1,0,1.0583333,0,1 @ F,0,0,1,0,1.0583333,0,1 @ F,0,0,1,0,1.0583333,0,1 @ F,0,0,1,0,1.0583333,0,1 @ F,0,0,1,0,1.0583333,0,1 @ F,0,0,1,0,1.0583333,0,1 | F,0,0,1,0,1.0583333,0,1 @ F,0,0,1,0,1.0583333,0,1 @ F,0,0,1,0,1.0583333,0,1 @ F,0,0,1,0,1.0583333,0,1 @ F,0,0,1,0,1.0583333,0,1 @ F,0,0,1,0,1.0583333,0,1 @ F,0,0,1,0,1.0583333,0,1 @ F,0,0,1,0,1.0583333,0,1 @ F,0,0,1,0,1.0583333,0,1 @ F,0,0,1,0,1.0583333,0,1 @ F,0,0,1,0,1.0583333,0,1 @ F,0,0,1,0,1.0583333,0,1 | F,0,0,1,0,1.0583333,0,1 @ F,0,0,1,0,1.0583333,0,1 @ F,0,0,1,0,1.0583333,0,1 @ F,0,0,1,0,1.0583333,0,1 @ F,0,0,1,0,1.0583333,0,1 @ F,0,0,1,0,1.0583333,0,1 @ F,0,0,1,0,1.0583333,0,1 @ F,0,0,1,0,1.0583333,0,1 @ F,0,0,1,0,1.0583333,0,1 | F,0,0,1,0,1.0583333,0,1 @ F,0,0,1,0,1.0583333,0,1 @ F,0,0,1,0,1.0583333,0,1 @ F,0,0,1,0,1.0583333,0,1 @ F,0,0,1,0,1.0583333,0,1 @ F,0,0,1,0,1.0583333,0,1 @ F,0,0,1,0,1.0583333,0,1 @ F,0,0,1,0,1.0583333,0,1 | F,0,0,1,0,1.0583333,0,1 @ F,0,0,1,0,1.0583333,0,1 @ F,0,0,1,0,1.0583333,0,1 | F,0,0,1,0,1.0583333,0,1 @ F,0,0,1,0,1.0583333,0,1 @ F,0,0,1,0,1.0583333,0,1 | F,0,0,1,0,1.0583333,0,1 @ F,0,0,1,0,1.0583333,0,1 @ F,0,0,1,0,1.0583333,0,1 @ F,0,0,1,0,1.0583333,0,1 | F,0,0,1,0,1.0583333,0,1 @ F,0,0,1,0,1.0583333,0,1 @ F,0,0,1,0,1.0583333,0,1 @ F,0,0,1,0,1.0583333,0,1 | F,0,0,1,0,1.0583333,0,1 @ F,0,0,1,0,1.0583333,0,1 @ F,0,0,1,0,1.0583333,0,1 @ F,0,0,1,0,1.0583333,0,1"
       unit="px"
       method="auto"
       mode="F"
       radius="4"
       chamfer_steps="1"
       flexible="false"
       use_knot_distance="true"
       apply_no_radius="true"
       apply_with_radius="true"
       only_selected="false"
       hide_knots="false" />
    <inkscape:path-effect
       effect="fillet_chamfer"
       id="path-effect119666"
       is_visible="true"
       lpeversion="1"
       satellites_param="F,0,0,1,0,0,0,1 @ F,0,0,1,0,0,0,1 @ F,0,0,1,0,0,0,1 @ F,0,0,1,0,0,0,1 | F,0,0,1,0,0,0,1 @ F,0,0,1,0,0,0,1 @ F,0,0,1,0,0,0,1 @ F,0,0,1,0,0,0,1"
       unit="px"
       method="auto"
       mode="F"
       radius="7"
       chamfer_steps="1"
       flexible="false"
       use_knot_distance="true"
       apply_no_radius="true"
       apply_with_radius="true"
       only_selected="false"
       hide_knots="false" />
  </defs>
  <g
     inkscape:label="Layer 1"
     inkscape:groupmode="layer"
     id="layer1"
     transform="translate(28.306489,-60.218226)">
    <g
       id="g119850"
       transform="translate(-573.55425,207.96458)"
       inkscape:export-filename="/home/ahmadnzr/Pictures/desain/lepas-aja/logo-3.png"
       inkscape:export-xdpi="96"
       inkscape:export-ydpi="96">
      <path
         d="m 593.55071,-19.291239 c 22.50029,-5.443368 26.85434,-6.424958 44.18814,-9.962063 79.44985,-16.212371 176.96435,-27.972894 248.60618,-29.982562 16.74354,-0.469773 29.83508,-1.158974 29.44392,-1.550309 -0.13672,-0.136364 -9.75647,-1.025503 -21.3781,-1.975952 -18.16818,-1.485829 -26.40867,-1.725494 -58.78611,-1.709924 -37.40956,0.01659 -49.11488,0.501455 -91.06597,3.7597 -14.6449,1.137498 -69.18335,6.951585 -71.46946,7.61904 -0.63406,0.185209 -6.85878,1.056376 -13.83278,1.936223 -36.92099,4.657905 -110.60431,18.575794 -113.98473,21.530273 -0.83644,0.731076 20.40462,12.318186 24.83998,13.550334 4.3192,1.199941 6.33136,0.923981 23.43893,-3.21476 z"
         style="fill:#e92024;fill-opacity:1;stroke-width:0.203329"
         id="path89147" />
      <path
         id="path98524"
         style="font-style:italic;font-weight:800;font-size:19.227px;line-height:1.25;font-family:Montserrat;-inkscape-font-specification:'Montserrat Ultra-Bold Italic';fill:#e92024;stroke-width:1.73404"
         d="m 859.55365,-147.70675 c -4.11487,0.37835 -6.86728,2.96857 -7.33566,6.38951 -0.0792,0.57866 -0.0807,1.53276 0.0143,2.10883 0.46725,2.83461 2.82604,5.0503 6.41945,5.41329 0.58125,0.0587 1.53152,0.0579 2.11347,0.006 4.14669,-0.37358 6.95653,-2.95549 7.40939,-6.59685 0.0721,-0.57967 0.0747,-1.53364 -0.0238,-2.10908 -0.47936,-2.80159 -2.88395,-4.87234 -6.48345,-5.21036 -0.58173,-0.0546 -1.53188,-0.0543 -2.11373,-8.5e-4 z m -301.63731,8.20465 -9.29566,46.476517 a 0.86761938,0.86761938 50.655173 0 0 0.85077,1.03778 l 34.78395,0 a 1.2959078,1.2959078 140.7624 0 0 1.26978,-1.036995 l 1.7974,-8.814992 a 0.86431256,0.86431256 50.762405 0 0 -0.84688,-1.037 h -21.05015 a 0.86857803,0.86857803 50.624148 0 1 -0.85189,-1.038 l 7.07761,-35.58709 a 0.86857803,0.86857803 50.624148 0 0 -0.85189,-1.038 h -11.61715 a 1.2909686,1.2909686 140.65517 0 0 -1.26589,1.03778 z m 256.20487,-0.14696 -30.00103,46.770441 a 0.57848148,0.57848148 61.33913 0 0 0.48691,0.890816 h 12.37961 a 1.862255,1.862255 150.39011 0 0 1.59993,-0.909253 l 4.5356,-7.614524 a 1.862255,1.862255 150.39011 0 1 1.59993,-0.90925 h 18.55395 a 1.2982295,1.2982295 39.18736 0 1 1.27159,1.03662 l 1.51414,7.359784 a 1.2982295,1.2982295 39.18736 0 0 1.27159,1.036623 h 11.54817 a 0.83322133,0.83322133 128.21321 0 0 0.80995,-1.028773 l -11.22553,-46.494534 a 1.3442639,1.3442639 38.213209 0 0 -1.30671,-1.02877 h -11.40835 a 1.9362234,1.9362234 151.33913 0 0 -1.62975,0.89082 z m -201.21978,9.46351 c -12.56776,0.45469 -21.17627,9.01061 -21.66882,20.63194 -0.0247,0.58393 -0.0254,1.53224 0.005,2.11588 0.50075,9.560567 7.82187,15.691198 18.88969,16.057095 0.58415,0.01931 1.5321,0.01914 2.1163,0.0012 4.97985,-0.153361 9.86694,-1.407151 14.09831,-4.230968 0.48613,-0.324415 0.60451,-1.00204 0.2812,-1.488983 l -4.31004,-6.491446 c -0.32331,-0.48694 -0.95243,-0.58047 -1.43644,-0.25307 -2.08207,1.40836 -4.58591,2.21544 -7.17767,2.38801 -0.58311,0.0388 -1.53186,0.0392 -2.11537,0.006 -4.10435,-0.23019 -6.53447,-1.85237 -7.29123,-5.03285 -0.13522,-0.5683 0.29214,-1.042 0.87664,-1.042 h 25.4889 c 0.5845,0 1.16301,-0.46222 1.27558,-1.03577 0.25152,-1.28145 0.45104,-2.64754 0.51958,-4.07884 0.028,-0.58374 0.0288,-1.53209 -0.002,-2.11571 -0.47478,-8.96539 -7.01713,-15.04639 -17.43346,-15.43061 -0.58407,-0.0215 -1.53211,-0.0214 -2.11619,-3e-4 z m 50.35696,0.0101 c -3.51828,0.19639 -6.51597,1.38112 -9.03341,3.43658 -0.45271,0.36963 -0.69797,0.23205 -0.57484,-0.33934 l 0.31659,-1.46914 a 0.85456719,0.85456719 51.080336 0 0 -0.83539,-1.03459 h -10.3681 a 1.2905986,1.2905986 140.64712 0 0 -1.2656,1.03784 l -9.78095,48.974464 a 0.8678681,0.8678681 50.647121 0 0 0.85106,1.037838 h 11.0616 a 1.2918523,1.2918523 140.67439 0 0 1.26659,-1.03764 l 3.1889,-15.888462 c 0.11502,-0.573073 0.4634,-0.636599 0.83082,-0.182345 2.23537,2.763597 5.66839,4.069204 9.83481,4.253913 0.58388,0.02589 1.53221,0.02595 2.11586,-0.0044 10.4335,-0.542132 18.82935,-9.073346 19.31126,-20.694406 0.0242,-0.58395 0.0247,-1.53217 -0.003,-2.11596 -0.464,-9.77004 -7.34642,-15.47464 -14.80079,-15.96853 -0.58313,-0.0386 -1.53186,-0.0384 -2.11537,-0.006 z m 39.74537,-0.002 c -10.43187,0.54189 -18.82834,9.06708 -19.31289,20.62358 -0.0245,0.58393 -0.0249,1.53215 0.002,2.11596 0.46123,9.834105 7.34506,15.545107 14.8011,16.039346 0.58313,0.03865 1.53186,0.03842 2.11537,0.0059 3.51854,-0.196382 6.51753,-1.381116 9.03526,-3.436586 0.45272,-0.369604 0.6977,-0.232087 0.57422,0.339223 l -0.31718,1.467554 a 0.85403047,0.85403047 51.097929 0 0 0.83475,1.034448 h 10.3681 a 1.2900682,1.2900682 140.63557 0 0 1.26518,-1.037921 l 7.07866,-35.518276 a 0.8682249,0.8682249 50.635573 0 0 -0.85148,-1.03792 h -11.06346 a 1.290542,1.290542 140.64589 0 0 -1.26556,1.03785 l -0.48597,2.43388 c -0.11445,0.57319 -0.46236,0.63681 -0.82977,0.18254 -2.23512,-2.76358 -5.66676,-4.06919 -9.83296,-4.25391 -0.58388,-0.0259 -1.53221,-0.0259 -2.11586,0.004 z m 49.38502,-0.0138 c -10.4041,0.26945 -18.31373,4.54026 -18.94693,12.5921 -0.0458,0.58255 -0.0473,1.53236 0.007,2.11415 0.96584,10.40193 16.31581,8.32919 19.03332,11.03931 0.40245,0.40135 0.43883,1.45869 0.14441,1.95535 -0.56058,0.94569 -2.03922,1.54849 -4.71136,1.67072 -0.58384,0.0267 -1.53208,0.0251 -2.116,7e-5 -3.7957,-0.16274 -7.94791,-1.18499 -11.07225,-2.90466 -0.51196,-0.28179 -1.12826,-0.11924 -1.39743,0.39959 l -3.81074,7.345362 c -0.26917,0.518834 -0.0884,1.196739 0.42869,1.468798 3.25122,1.710435 8.62912,2.990474 14.32474,3.133564 0.58428,0.01468 1.53212,0.01489 2.1164,-5.52e-4 10.22157,-0.270159 18.23474,-4.480966 18.8773,-12.522862 0.0465,-0.58249 0.0481,-1.53237 -0.007,-2.11405 -0.97649,-10.30658 -16.36865,-8.12383 -18.9937,-11.02272 -0.38291,-0.42285 -0.39611,-1.47398 -0.0947,-1.966 0.57483,-0.93843 2.05012,-1.66056 4.69213,-1.81076 0.5835,-0.0332 1.5319,-0.0311 2.11589,-0.008 2.83802,0.11366 6.13682,0.70779 9.18655,2.30471 0.51773,0.27109 1.13533,0.0958 1.39828,-0.4262 l 3.69529,-7.33574 c 0.26295,-0.52201 0.0546,-1.16248 -0.47973,-1.39922 -3.34318,-1.48127 -7.74649,-2.38912 -12.2735,-2.51243 -0.58423,-0.0159 -1.53206,-0.016 -2.11635,-8.4e-4 z m 133.5894,0.0138 c -10.43176,0.54189 -18.82658,9.06708 -19.31102,20.62358 -0.0245,0.58394 -0.0249,1.53215 0.002,2.11596 0.46123,9.834104 7.34506,15.545106 14.80109,16.039346 0.58313,0.03865 1.53186,0.03842 2.11537,0.0059 3.51828,-0.196387 6.51594,-1.381113 9.0334,-3.436563 0.45271,-0.369626 0.69793,-0.232057 0.57474,0.339315 l -0.31636,1.467328 a 0.85447437,0.85447437 51.083378 0 0 0.83528,1.034561 h 10.3681 a 1.2900679,1.2900679 140.63557 0 0 1.26518,-1.037922 L 912.4251,-128.544 a 0.86822513,0.86822513 50.635566 0 0 -0.85148,-1.03792 h -11.06346 a 1.290542,1.290542 140.64589 0 0 -1.26556,1.03785 l -0.48597,2.43388 c -0.11445,0.57319 -0.46236,0.63681 -0.82979,0.18255 -2.23534,-2.76359 -5.66837,-4.06921 -9.8348,-4.25392 -0.58388,-0.0259 -1.53221,-0.0259 -2.11586,0.004 z m -34.8714,1.63281 -6.93514,34.478767 c -0.11526,0.573025 -0.29522,1.504482 -0.45552,2.066409 -0.64906,2.275237 -1.76911,3.464553 -3.41774,3.797563 -0.57198,0.115536 -1.52851,0.105084 -2.10658,0.02202 -0.67779,-0.0974 -1.34727,-0.284604 -1.96071,-0.545873 -0.53721,-0.228802 -1.1641,-0.06969 -1.44215,0.444438 l -4.05634,7.500346 c -0.27805,0.514129 -0.0782,1.141183 0.46305,1.361628 2.12273,0.864608 4.63458,1.383471 7.33949,1.490916 0.584,0.0232 1.53213,0.02348 2.11609,-5.6e-4 8.7596,-0.360554 14.22566,-5.261058 16.34092,-14.479856 0.13071,-0.569673 0.31348,-1.499688 0.42894,-2.072674 l 6.8636,-34.06319 a 0.86635396,0.86635396 50.696169 0 0 -0.84928,-1.03748 l -11.0616,0 a 1.2924061,1.2924061 140.68643 0 0 -1.26703,1.03755 z m -31.89887,2.28809 2.82969,13.67258 a 0.8617275,0.8617275 129.15354 0 1 -0.84384,1.03637 h -10.43707 a 0.60421402,0.60421402 60.277483 0 1 -0.52031,-0.91138 l 8.21902,-13.92256 a 0.40888503,0.40888503 9.4310231 0 1 0.75251,0.12499 z m -204.81626,5.46545 c 3.27836,0.3287 5.52793,2.21554 5.89688,5.27348 0.07,0.57984 -0.42156,1.05622 -1.00606,1.05622 h -13.35088 c -0.5845,0 -0.91341,-0.45229 -0.68169,-0.9887 1.26286,-2.92329 3.57934,-4.9918 7.02851,-5.34043 0.58129,-0.0588 1.53189,-0.0589 2.11324,-5.7e-4 z m 46.40424,1.18355 c 3.5121,0.37717 5.67164,2.66731 6.03324,6.10122 0.0612,0.58101 0.0584,1.53098 0.0173,2.11391 -0.37001,5.24369 -3.49713,8.85656 -7.85545,9.35784 -0.58036,0.0667 -1.53151,0.067 -2.11255,0.006 -3.51164,-0.3688 -5.67104,-2.61076 -6.03304,-6.03536 -0.0614,-0.58097 -0.0585,-1.53093 -0.0182,-2.11393 0.36636,-5.30341 3.4948,-8.92325 7.85624,-9.42492 0.58036,-0.0667 1.53158,-0.0671 2.11247,-0.005 z m 46.19382,0 c 3.51212,0.37716 5.67165,2.66731 6.03324,6.10122 0.0612,0.58101 0.0584,1.53096 0.018,2.11395 -0.3638,5.24855 -3.44473,8.86326 -7.85415,9.35919 -0.58055,0.0653 -1.53162,0.0656 -2.11266,0.005 -3.51186,-0.36879 -5.6726,-2.61075 -6.03484,-6.03536 -0.0615,-0.58097 -0.0585,-1.53093 -0.0183,-2.11393 0.36636,-5.30341 3.49482,-8.92325 7.85623,-9.42491 0.58036,-0.0668 1.53158,-0.0671 2.11247,-0.005 z m 182.97628,0 c 3.51212,0.37716 5.67165,2.66731 6.03324,6.10122 0.0612,0.58101 0.0584,1.53096 0.018,2.11395 -0.3638,5.24855 -3.44473,8.86326 -7.85414,9.35919 -0.58055,0.0653 -1.53162,0.0656 -2.11266,0.005 -3.5119,-0.36879 -5.67261,-2.61076 -6.03485,-6.03537 -0.0614,-0.58097 -0.0585,-1.53093 -0.0183,-2.11393 0.36636,-5.30341 3.49482,-8.92325 7.85623,-9.42491 0.58036,-0.0668 1.53158,-0.0671 2.11247,-0.005 z"
         inkscape:path-effect="#path-effect98568"
         inkscape:original-d="m 860.61054,-147.75446 c -5.13272,0 -8.46362,3.2613 -8.46362,7.49235 0,3.60681 2.9141,6.51922 7.56134,6.51922 5.13276,0 8.53072,-3.19077 8.53072,-7.69927 0,-3.60681 -2.9812,-6.3123 -7.62844,-6.3123 z m -302.48664,7.21458 -9.71078,48.552077 h 36.90061 l 2.2203,-10.888987 h -23.16681 l 7.49049,-37.66309 z m 256.56873,0 -31.14387,48.552077 h 14.49627 l 5.6188,-9.433027 h 20.67061 l 1.94066,9.433027 h 13.66483 l -11.72229,-48.552077 z m -200.7331,10.3353 c -13.52553,0 -22.74922,9.22391 -22.74922,21.70899 0,10.473606 7.90632,17.132299 19.97524,17.132299 5.68764,0 11.30651,-1.386383 16.02308,-4.854455 l -5.48084,-8.254824 c -2.49701,2.01149 -5.7569,3.05174 -9.08627,3.05174 -5.2021,0 -8.04519,-1.9418 -8.53073,-6.10349 h 27.60556 c 0.41616,-1.87276 0.76246,-3.95291 0.76246,-6.17247 0,-9.84935 -7.07463,-16.50779 -18.51928,-16.50779 z m 50.35665,0 c -4.36978,0 -7.97581,1.45587 -10.88898,4.16098 l 0.76247,-3.53832 h -12.48476 l -10.19549,51.050142 h 13.17826 l 3.60542,-17.963742 c 2.35831,3.606806 6.45198,5.132229 11.51537,5.132229 11.23659,0 20.39097,-9.225379 20.39097,-21.779829 0,-10.88977 -7.76795,-17.06146 -15.88326,-17.06146 z m 39.74544,0 c -11.23656,0 -20.39284,9.22391 -20.39284,21.70899 0,10.959135 7.76795,17.132299 15.88326,17.132299 4.36978,0 7.97764,-1.45586 10.89085,-4.160962 l -0.76434,3.53645 h 12.48476 l 7.49236,-37.594117 h -13.18012 l -0.90043,4.50958 c -2.3583,-3.6068 -6.45011,-5.13224 -11.5135,-5.13224 z m 49.38538,0 c -11.37531,0 -20.04609,4.64596 -20.04609,13.66297 0,12.69317 19.49055,8.73989 19.49055,13.04031 0,1.66467 -1.73411,2.70499 -6.03452,2.70499 -4.43915,0 -9.57222,-1.24789 -13.0403,-3.46747 l -4.7855,9.224225 c 3.26001,2.080848 9.64029,3.676264 16.299,3.676264 11.16722,0 19.97711,-4.576976 19.97711,-13.593979 0,-12.55445 -19.42157,-8.5318 -19.42157,-13.0403 0,-1.52596 1.73407,-2.84482 6.03451,-2.84482 3.32934,0 7.4906,0.62524 11.16676,2.84482 l 4.64753,-9.2261 c -3.67616,-1.87276 -8.94663,-2.98091 -14.28748,-2.98091 z m 133.58904,0 c -11.23656,0 -20.39097,9.22391 -20.39097,21.70899 0,10.959135 7.76795,17.132299 15.88325,17.132299 4.36978,0 7.97577,-1.45586 10.88898,-4.160962 l -0.76246,3.53645 h 12.48476 l 7.49235,-37.594117 h -13.18012 l -0.90043,4.50958 c -2.35826,-3.6068 -6.45197,-5.13224 -11.51536,-5.13224 z m -35.72056,0.62266 -7.35254,36.55387 c -0.69361,3.468081 -2.21949,4.925306 -4.7165,4.925306 -1.38723,0 -2.84426,-0.415603 -3.95404,-1.109219 l -5.06326,9.362172 c 2.56639,1.248507 5.82663,1.942533 9.36405,1.942533 9.71062,0 15.60738,-5.271001 17.61885,-15.53651 l 7.2817,-36.138152 z m -32.32206,2.28927 3.25867,15.74532 h -12.55373 z m -205.65841,6.45026 c 4.23107,0 7.07517,2.35828 7.00579,6.38126 h -15.46754 c 1.24853,-3.74552 4.02264,-6.38126 8.46175,-6.38126 z m 46.40448,1.18006 c 4.50849,0 7.14374,2.84293 7.14374,7.21271 0,6.24254 -3.74622,10.47512 -8.94831,10.47512 -4.50853,0 -7.14375,-2.77583 -7.14375,-7.1456 0,-6.31191 3.74618,-10.54223 8.94832,-10.54223 z m 46.19382,0 c 4.50852,0 7.14374,2.84293 7.14374,7.21271 0,6.24254 -3.67498,10.47512 -8.94646,10.47512 -4.50848,0 -7.14559,-2.77583 -7.14559,-7.1456 0,-6.31191 3.74621,-10.54223 8.94831,-10.54223 z m 182.97628,0 c 4.50852,0 7.14374,2.84293 7.14374,7.21271 0,6.24254 -3.67498,10.47512 -8.94645,10.47512 -4.50853,0 -7.1456,-2.77583 -7.1456,-7.1456 0,-6.31191 3.74621,-10.54223 8.94831,-10.54223 z" />
      <path
         id="path114727"
         style="font-style:italic;font-weight:800;font-size:10.5833px;line-height:1.25;font-family:Montserrat;-inkscape-font-specification:'Montserrat Ultra-Bold Italic';fill:#e92024;fill-opacity:1;stroke-width:5.76559"
         d="m 1949.6758,-912.32617 -11.7617,102.62695 h 34.8242 l 29.289,-102.62695 z m -0.461,115.54297 c -15.4521,0 -27.4453,10.60909 -27.4453,25.59961 0,12.45365 10.149,22.36914 24.9082,22.36914 15.4522,0 27.4434,-11.5313 27.4434,-26.06055 0,-12.45366 -10.1472,-21.9082 -24.9063,-21.9082 z"
         transform="matrix(0.26458333,0,0,0.26458333,408.81918,105.33117)"
         inkscape:path-effect="#path-effect119666"
         inkscape:original-d="m 1949.6758,-912.32617 -11.7617,102.62695 h 34.8242 l 29.289,-102.62695 z m -0.461,115.54297 c -15.4521,0 -27.4453,10.60909 -27.4453,25.59961 0,12.45365 10.149,22.36914 24.9082,22.36914 15.4522,0 27.4434,-11.5313 27.4434,-26.06055 0,-12.45366 -10.1472,-21.9082 -24.9063,-21.9082 z" />
    </g>
  </g>
</svg>
