<?xml version="1.0" standalone="no"?>
<!DOCTYPE svg PUBLIC "-//W3C//DTD SVG 20010904//EN"
 "http://www.w3.org/TR/2001/REC-SVG-20010904/DTD/svg10.dtd">
<svg version="1.0" xmlns="http://www.w3.org/2000/svg"
 width="64.000000pt" height="64.000000pt" viewBox="0 0 64.000000 64.000000"
 preserveAspectRatio="xMidYMid meet">

<g transform="translate(0.000000,64.000000) scale(0.100000,-0.100000)"
fill="#000000" stroke="none">
<path d="M46 609 c-10 -51 -7 -98 8 -127 8 -15 66 -78 130 -141 100 -100 117
-113 131 -101 13 11 18 11 29 -1 7 -8 59 -65 115 -126 107 -118 131 -132 164
-95 10 10 17 27 17 38 0 20 -556 584 -576 584 -6 0 -14 -14 -18 -31z"/>
<path d="M428 561 c-42 -43 -78 -90 -80 -103 -3 -17 8 -35 40 -69 57 -60 74
-57 174 39 71 68 77 77 63 91 -13 14 -20 10 -65 -34 -39 -38 -52 -47 -62 -37
-10 10 -1 23 37 62 38 39 47 52 37 62 -10 10 -23 1 -62 -37 -39 -38 -52 -47
-62 -37 -10 10 -1 23 37 62 44 45 48 52 34 65 -14 14 -23 8 -91 -64z"/>
<path d="M95 170 c-93 -94 -99 -101 -89 -127 5 -16 21 -32 37 -37 26 -10 33
-5 130 92 l101 102 -34 35 c-19 19 -37 35 -40 35 -3 0 -50 -45 -105 -100z"/>
</g>
</svg>
