<?xml version="1.0" standalone="no"?>
<!DOCTYPE svg PUBLIC "-//W3C//DTD SVG 20010904//EN"
 "http://www.w3.org/TR/2001/REC-SVG-20010904/DTD/svg10.dtd">
<svg version="1.0" xmlns="http://www.w3.org/2000/svg"
 width="64.000000pt" height="64.000000pt" viewBox="0 0 64.000000 64.000000"
 preserveAspectRatio="xMidYMid meet">

<g transform="translate(0.000000,64.000000) scale(0.100000,-0.100000)"
fill="#000000" stroke="none">
<path d="M150 581 c-68 -22 -150 -62 -150 -73 0 -15 62 -118 70 -118 5 0 20 4
34 10 l26 9 2 -182 3 -182 185 0 185 0 3 182 2 182 26 -9 c14 -6 29 -10 34
-10 9 0 70 103 70 118 0 11 -120 66 -175 81 -34 10 -42 9 -50 -5 -27 -44 -48
-63 -73 -69 -41 -9 -80 10 -103 50 -24 40 -18 39 -89 16z"/>
<path d="M267 573 c3 -7 16 -16 29 -19 30 -8 70 2 77 19 3 9 -10 12 -53 12
-43 0 -56 -3 -53 -12z"/>
</g>
</svg>
